# xmcd CD database file
#
# Track frame offsets:
#	150
#	16636
#	32281
#	50686
#	71707
#	87822
#	113118
#	131678
#	148677
#	165066
#	179299
#	204337
#	225374
#	238951
#
# Disc length: 3470 seconds
#
# Revision: 1
# Processed by: cddbd v1.5.2PL0 Copyright (c) Steve Scherf et al.
# Submitted via: CDex 1.70beta2
#
DISCID=ab0d8c0e
DTITLE=Andreas Max Martin - Moral Royal
DYEAR=2007
DGENRE=Jazz
TTITLE0=Rundfunkzölibat
TTITLE1=Viel zu große Turnschuhe
TTITLE2=Reinkarnation
TTITLE3=Sanssouci
TTITLE4=Es ist nicht so wie Du denkst
TTITLE5=Carmen ist kalt
TTITLE6=Moral Royal
TTITLE7=Langweilig und schön
TTITLE8=Alcatraz
TTITLE9=Sie hat vier Beine
TTITLE10=Flitterwochen
TTITLE11=Marie Antoinette
TTITLE12=Kastagnetten aus der Tiefsee
TTITLE13=Möchtest Du?
EXTD=YEAR: 2007
EXTT0=
EXTT1=
EXTT2=
EXTT3=
EXTT4=
EXTT5=
EXTT6=
EXTT7=
EXTT8=
EXTT9=
EXTT10=
EXTT11=
EXTT12=
EXTT13=
PLAYORDER=
